<?xml version="1.0" standalone="no"?>
<!DOCTYPE svg PUBLIC "-//W3C//DTD SVG 20010904//EN"
 "http://www.w3.org/TR/2001/REC-SVG-20010904/DTD/svg10.dtd">
<svg version="1.0" xmlns="http://www.w3.org/2000/svg"
 width="1024.000000pt" height="1024.000000pt" viewBox="0 0 1024.000000 1024.000000"
 preserveAspectRatio="xMidYMid meet">

<g transform="translate(0.000000,1024.000000) scale(0.100000,-0.100000)"
fill="#000000" stroke="none">
<path d="M0 5120 l0 -5120 5120 0 5120 0 0 5120 0 5120 -5120 0 -5120 0 0
-5120z m5388 3087 c525 -93 887 -259 1185 -546 324 -312 507 -711 558 -1215
15 -148 7 -476 -15 -601 -36 -211 -104 -406 -163 -467 -59 -62 8 -59 -1315
-56 l-1207 3 -28 21 c-15 12 -36 35 -46 51 -19 33 -92 331 -206 838 -38 171
-74 323 -80 338 -7 19 -26 35 -58 50 -44 20 -69 22 -303 27 -270 5 -281 7
-319 56 -21 26 -21 33 -21 742 l0 716 32 33 33 34 930 -4 c802 -3 943 -6 1023
-20z m1376 -3133 c31 -12 15 -37 -86 -139 -116 -115 -202 -165 -318 -185 -45
-7 -340 -10 -960 -8 -882 3 -896 3 -930 24 -19 11 -41 31 -49 45 -45 80 74
212 228 255 36 9 276 12 1073 13 564 1 1033 -2 1042 -5z m-1883 -505 c99 -50
132 -205 70 -327 -28 -55 -121 -137 -177 -156 -70 -24 -160 -21 -214 7 -118
60 -151 213 -75 343 79 135 268 199 396 133z m1214 20 c55 -15 101 -52 127
-102 32 -60 32 -174 0 -238 -29 -59 -93 -123 -152 -151 -60 -30 -166 -36 -224
-14 -150 57 -181 260 -60 394 90 101 201 141 309 111z m-4945 -1640 c243 -38
369 -230 332 -505 -14 -107 -46 -177 -106 -232 -98 -90 -188 -114 -424 -110
l-167 3 -3 415 c-1 228 0 421 3 427 6 16 269 18 365 2z m993 -401 c80 -227
147 -420 149 -428 2 -12 -14 -16 -90 -18 l-93 -3 -13 33 c-7 18 -19 57 -26 86
l-12 52 -148 0 -147 0 -18 -67 c-28 -108 -23 -103 -125 -103 -70 0 -90 3 -90
14 0 10 235 696 285 834 3 8 31 12 93 12 l89 0 146 -412z m445 244 l3 -164 56
69 c31 37 90 112 131 166 l75 97 110 0 c97 0 108 -2 103 -16 -4 -9 -68 -91
-144 -181 -75 -90 -138 -168 -140 -173 -2 -5 65 -113 149 -240 100 -152 149
-234 142 -241 -5 -5 -51 -9 -104 -7 l-94 3 -102 165 c-56 91 -105 170 -107
175 -3 6 -21 -8 -40 -30 l-35 -40 -3 -135 -3 -135 -85 0 -85 0 -3 415 c-1 228
0 421 3 428 3 9 27 12 87 10 l83 -3 3 -163z m1076 11 c31 -87 98 -277 150
-423 52 -145 92 -268 90 -272 -3 -4 -45 -8 -93 -8 -101 0 -93 -7 -126 113
l-16 57 -148 0 -147 0 -13 -52 c-8 -29 -19 -68 -27 -85 l-13 -33 -90 0 c-54 0
-91 4 -91 10 0 5 66 199 147 430 l146 420 88 0 87 0 56 -157z m787 141 c78
-23 151 -98 174 -178 22 -77 16 -155 -19 -223 -25 -50 -88 -113 -113 -113 -7
0 -13 -2 -13 -5 0 -8 70 -130 128 -222 29 -46 52 -87 52 -93 0 -7 -36 -10
-101 -8 l-101 3 -78 145 -77 145 -51 3 -51 3 -3 -148 -3 -148 -85 0 -85 0 -3
415 c-1 228 0 421 3 427 7 21 355 18 426 -3z m656 -193 c59 -115 109 -208 111
-206 2 2 52 95 111 207 l106 203 87 3 c84 3 88 2 92 -20 7 -35 35 -822 29
-830 -2 -5 -40 -8 -83 -8 -66 0 -79 3 -84 18 -3 9 -8 103 -12 207 -4 105 -10
211 -13 237 l-6 47 -100 -184 c-97 -179 -101 -185 -132 -185 -28 0 -34 5 -56
53 -13 28 -55 115 -93 192 l-69 140 -13 -205 c-6 -113 -15 -230 -20 -260 l-7
-55 -74 -3 c-41 -2 -77 1 -81 5 -6 6 23 838 29 851 0 1 39 2 85 2 l84 0 109
-209z m1128 192 c3 -10 49 -137 100 -283 52 -146 117 -328 144 -404 27 -77 48
-144 45 -148 -3 -4 -45 -8 -94 -8 l-89 0 -26 85 -26 86 -146 -3 -146 -3 -20
-70 c-10 -38 -24 -76 -29 -82 -11 -14 -188 -19 -188 -5 0 4 66 197 147 429
l148 423 86 0 c74 0 88 -3 94 -17z m835 1 c70 -21 149 -98 173 -168 36 -107
13 -219 -61 -295 -26 -27 -53 -50 -61 -53 -17 -5 9 -56 103 -208 35 -58 61
-109 57 -113 -4 -4 -50 -6 -102 -5 l-94 3 -24 45 c-13 25 -49 91 -80 148 l-56
102 -47 0 -47 0 -3 -147 -3 -148 -87 -3 -88 -3 0 431 0 430 183 0 c138 0 197
-4 237 -16z m520 -151 l5 -162 130 162 131 162 107 3 c75 2 107 -1 107 -9 0
-6 -64 -88 -142 -182 -78 -94 -141 -176 -141 -182 0 -5 66 -110 146 -233 81
-123 147 -230 147 -238 0 -12 -17 -14 -102 -12 l-101 3 -106 173 -105 172 -36
-35 -35 -35 -5 -138 -5 -137 -85 0 -85 0 -3 415 c-1 228 0 421 3 428 3 9 27
12 87 10 l83 -3 5 -162z m1125 87 l0 -75 -172 -3 -173 -2 0 -95 0 -95 145 0
c115 0 146 -3 152 -14 4 -8 6 -43 3 -78 l-5 -63 -148 -3 -148 -3 3 -92 3 -92
165 -3 c91 -1 171 -5 178 -7 9 -3 12 -25 10 -77 l-3 -73 -267 -3 -268 -2 0
423 c0 233 3 427 7 430 4 4 122 6 262 5 l256 -3 0 -75z m733 -2 l3 -78 -111 0
-110 0 0 -350 0 -351 -87 3 -88 3 -3 348 -2 347 -110 0 -110 0 0 73 c0 41 3
77 7 80 4 4 142 6 307 5 l301 -3 3 -77z"/>
<path d="M4226 7207 c22 -20 54 -64 72 -99 35 -69 44 -107 127 -553 79 -417
142 -703 165 -740 38 -62 15 -60 715 -63 451 -2 651 0 678 8 33 10 42 19 63
65 54 117 77 342 55 534 -56 480 -295 749 -761 857 -65 15 -148 18 -615 21
l-540 4 41 -34z"/>
<path d="M960 2531 l0 -271 68 0 c130 0 205 37 247 124 21 44 26 67 26 134 0
97 -14 149 -53 197 -47 56 -99 78 -200 83 l-88 4 0 -271z"/>
<path d="M1855 2574 l-51 -154 103 0 c57 0 103 1 103 3 0 7 -98 298 -101 301
-2 2 -27 -66 -54 -150z"/>
<path d="M3475 2588 c-27 -79 -50 -149 -53 -155 -3 -10 20 -13 97 -13 56 0
101 3 101 8 0 4 -22 74 -49 155 l-49 149 -47 -144z"/>
<path d="M4200 2679 l0 -121 100 4 c92 3 102 6 126 30 52 51 36 164 -26 195
-14 7 -63 13 -112 13 l-88 0 0 -121z"/>
<path d="M6092 2577 c-28 -83 -50 -152 -48 -154 2 -2 48 -2 102 -1 l99 3 -51
151 -50 151 -52 -150z"/>
<path d="M6830 2680 l0 -120 80 0 c101 0 143 16 159 60 15 45 14 85 -4 120
-23 45 -62 60 -155 60 l-80 0 0 -120z"/>
</g>
</svg>
